<?xml version="1.0" encoding="utf-8"?>
<svg viewBox="835.588 21.9 908.49 1210.324" xmlns="http://www.w3.org/2000/svg">
  <path d="M 1704.622 38.36 C 1704.972 37.13 1705.282 36 1705.572 34.97 C 1705.572 34.85 1705.642 34.73 1705.672 34.61 C 1705.942 33.61 1706.182 32.77 1706.402 32 L 1706.402 31.84 C 1706.622 31.08 1706.802 30.41 1706.962 29.84 L 1707.052 29.51 C 1707.182 29.04 1707.292 28.65 1707.372 28.35 L 1707.372 28.15 C 1707.442 27.91 1707.482 27.75 1707.502 27.67 L 1707.502 27.61 L 1737.132 24 L 1737.132 24.1 C 1737.099 24.225 1737.059 24.349 1737.012 24.47 C 1735.422 29.18 1722.112 68.47 1704.732 118.21 C 1688.232 165.39 1668.082 221.9 1650.842 266.93 L 1650.842 266.98 C 1646.842 277.08 1642.725 287.16 1638.492 297.22 L 1638.112 298.12 C 1636.232 302.613 1634.322 307.093 1632.382 311.56 L 1631.382 314.03 C 1629.502 318.356 1627.605 322.69 1625.692 327.03 C 1625.282 328.03 1624.862 328.92 1624.442 329.86 C 1622.522 334.18 1620.582 338.49 1618.622 342.79 L 1617.392 345.49 C 1615.392 349.896 1613.359 354.296 1611.292 358.69 L 1610.292 360.89 C 1608.145 365.476 1605.972 370.056 1603.772 374.63 L 1603.142 375.94 C 1448.772 696.73 1182.872 996.02 845.082 1226.56 C 836.222 1180.67 851.412 1131.96 880.822 1086.96 C 893.096 1095.858 904.359 1106.072 914.412 1117.42 L 886.202 1078.98 C 889.002 1074.98 891.905 1071.003 894.912 1067.05 C 909.039 1073.81 922.905 1081.063 936.512 1088.81 C 937.512 1084.81 938.512 1080.81 939.302 1076.71 L 910.662 1047.85 C 912.662 1045.536 914.709 1043.25 916.802 1040.99 C 917.362 1040.38 917.912 1039.76 918.482 1039.15 C 919.562 1037.98 920.652 1036.83 921.752 1035.68 C 923.112 1034.25 924.452 1032.8 925.842 1031.38 C 933.222 1023.82 941.142 1016.46 949.322 1009.26 C 954.252 979.68 962.632 950.93 985.322 925.92 C 1009.022 899.84 1044.962 882.03 1076.782 861.69 L 1076.992 860.89 C 1076.992 860.72 1077.082 860.56 1077.122 860.39 C 1077.302 859.71 1077.462 859.04 1077.632 858.39 C 1077.702 858.09 1077.782 857.79 1077.852 857.49 C 1078.002 856.88 1078.142 856.27 1078.282 855.67 C 1078.362 855.29 1078.452 854.9 1078.542 854.52 L 1078.902 852.88 C 1078.992 852.42 1079.092 851.97 1079.192 851.51 L 1079.492 850.05 C 1079.602 849.5 1079.702 848.95 1079.812 848.4 C 1079.892 848.01 1079.972 847.61 1080.042 847.21 C 1080.112 846.81 1080.232 846.21 1080.332 845.65 L 1080.272 845.65 C 1080.342 845.27 1080.422 844.9 1080.492 844.53 L 1080.492 844.33 C 1081.142 840.69 1081.702 837.04 1082.202 833.38 C 1082.742 829.26 1083.282 825.13 1083.742 821 L 1083.742 821.05 C 1084.562 813.68 1085.262 806.29 1086.012 798.93 C 1086.122 797.83 1086.232 796.73 1086.352 795.63 L 1086.352 795.69 L 1086.952 790.14 C 1087.252 787.34 1087.585 784.55 1087.952 781.77 L 1087.952 781.82 C 1088.172 780.153 1088.402 778.486 1088.642 776.82 C 1089.182 773.013 1089.809 769.216 1090.522 765.43 C 1094.362 744.93 1100.912 724.99 1114.342 706.29 C 1115.782 704.29 1117.342 702.29 1118.912 700.29 C 1124.167 693.867 1129.961 687.905 1136.232 682.47 L 1136.302 682.41 C 1143.391 676.272 1150.895 670.632 1158.762 665.53 C 1163.013 650.158 1170.758 635.976 1181.392 624.09 C 1211.712 590.16 1265.462 574.18 1300.582 543.09 C 1342.862 505.66 1350.722 453.71 1384.122 411.52 C 1398.372 393.52 1416.982 377.79 1437.942 364.25 C 1453.162 341.74 1473.252 321.81 1500.402 308.47 C 1501.575 307.876 1502.755 307.306 1503.942 306.76 C 1506.242 305.7 1508.562 304.76 1510.942 303.84 C 1548.832 289.43 1592.302 295.27 1626.532 281.84 C 1662.872 184.05 1694.852 73.03 1704.532 38.48 L 1704.622 38.36 Z" fill="none" stroke="#1d1d1b" stroke-width="3" style="transform-box: fill-box; transform-origin: 50% 50%;" transform="matrix(-1, 0, 0, -1, 0.000205, 0.000028)"/>
  <path d="M 912.679 1104.2 C 949.279 1008.6 998.979 861.2 998.979 861.2 L 969.379 864.9 C 969.379 864.9 902.079 1110.9 842.579 1226.7 L 912.679 1104.2 Z" fill="#358554" style="transform-box: fill-box; transform-origin: 50% 50%;" transform="matrix(-1, 0, 0, -1, -0.000213, 0.000269)"/>
  <path d="M 860.479 1212.4 C 881.779 1156.2 898.079 1076.1 923.079 1056.9 C 941.579 1003.9 955.479 962.7 955.479 962.7 L 925.879 966.3 C 925.879 966.3 887.179 1107.8 842.579 1226.6 L 860.479 1212.4 Z" fill="#358554" style="transform-box: fill-box; transform-origin: 50% 50%;" transform="matrix(-1, 0, 0, -1, -0.000027, 0.000031)"/>
  <path d="M 1678.579 98 C 1633.579 109.4 1588.179 121 1545.579 139 C 1502.979 157 1462.779 182.4 1436.879 215 C 1403.479 257.3 1395.579 309.2 1353.279 346.6 C 1318.279 377.7 1264.479 393.7 1234.179 427.6 C 1182.379 485.6 1225.179 562.6 1179.179 623.1 C 1145.779 667.1 1076.079 687.6 1037.979 729.5 C 976.779 796.9 1019.679 891.3 953.879 956.2 C 989.279 923.3 1023.479 938.8 1057.879 905.1 C 1298.879 669.3 1543.879 411.4 1678.579 98 Z" fill="#04392c" style="transform-box: fill-box; transform-origin: 50% 50%;" transform="matrix(-1, 0, 0, -1, 0.00014, -0.000016)"/>
  <path d="M 1060.71 869.2 C 1035.28 852.383 1008.717 837.347 981.21 824.2 C 978.21 828.133 975.31 832.1 972.51 836.1 L 1000.71 874.5 C 990.648 863.175 979.382 852.981 967.11 844.1 C 937.71 889.1 922.51 937.8 931.41 983.7 C 1307.11 727.2 1594.01 385.7 1737.21 24 C 1699.61 58.3 1639.31 41.3 1590.31 63.8 C 1535.61 88.9 1508.71 140.4 1492.71 187.3 C 1476.71 234.2 1464.71 284.5 1423.21 323.1 C 1403.71 341.1 1379.41 355.1 1353.81 367.7 L 1434.31 462.7 C 1404.229 429.51 1369.138 401.234 1330.31 378.9 C 1283.01 400.9 1234.31 421.5 1205.31 457.4 C 1158.01 515.7 1184.01 587.1 1151.21 650 C 1123.21 703.7 1058.01 741.7 1012.21 788.7 C 1006.876 794.033 1001.81 799.5 997.01 805.1 L 1060.71 869.2 Z" fill="#1d674b" style="transform-box: fill-box; transform-origin: 50% 50%;" transform="matrix(-1, 0, 0, -1, 0.000018, -0.000092)"/>
  <g style="" transform="matrix(-1, 0, 0, 1, 2579.778809, 0)">
    <path d="M1116.5 81.4q29.9 28.7 58.5 58.2l-23.4 25.7-2.6-42.9-18.1 24v-24.2l-14 17z" transform="translate(52 205)" fill="#1d4d3d"/>
    <path d="M1100.2 66l-35.5 29.3-9.3-68.4-14.7 12-7.4-12.6-10.6 1c4.7-17.9-27.3-38-27-54.6q54 45.4 104.5 93.3z" transform="translate(52 205)" fill="#1d4d3d"/>
    <path d="M1320.6 305.4A2021.9 2021.9 0 011477.8 533l-78.7 73.3 31.4-50.2-17.3 21.2 5.6-18-46.4 33 38.8-77.5-40 23.9 16-28.5-29 14.2 44-100.9-64.7 45.4 21.6-44-31.4 21.9 12-20.8-19.6 16.6 7.6-21.7-46.1 27.8 55.9-115.9-61.5 66.9a183 183 0 0044.6-94.4z" transform="translate(52 205)" fill="#1d4d3d"/>
    <path d="M1288 265.4l-36.7 47.8q4-17.6 8.2-35.1l-12 9.3c11.3-15.5 2.8-39.8-18.2-52-3-13.2-22.2-24.2-37.7-21.8l-1.9-58.5q51.4 54 98.4 110.3z" transform="translate(52 205)" fill="#1d4d3d"/>
  </g>
  <g style="" transform="matrix(-1, 0, 0, 1, 2579.778809, 0)">
    <path d="M1452 738.9a149.5 149.5 0 01-13.7-7.3 45.8 45.8 0 0018 4.1c6.3-7.8 1.2-19.1-2-29.1s-1.8-22.8 10.2-24.7l-9.9-1.6 31.3-17-70.1 16.9c31.8-17 59.7-33.5 91.5-50.5-18.7-42-41-105.7-65.1-152L1481 547a1814.7 1814.7 0 0191.7 169.5q13.8 31 26.2 62.3c-37.6-34.3-97.9-17.3-146.9-39.8z" transform="translate(52 205)" fill="#1d4d3d"/>
    <path d="M1416.4 452.2l-257-312.9a1493.6 1493.6 0 01257 313z" transform="translate(52 205)" fill="#04392c"/>
  </g>
  <path d="M 1643.779 89.832 C 1641.479 91.832 1640.879 87.832 1638.479 89.532 L 1637.679 90.532 C 1547.179 302.732 1407.579 513.532 1231.479 697.832 C 1157.979 774.632 1078.079 847.832 998.279 920.832 L 928.779 984.432 C 1259.879 736.532 1512.379 421.532 1643.879 89.732 L 1643.779 89.832 Z" fill="#358554" style="transform-box: fill-box; transform-origin: 50% 50%;" transform="matrix(-1, 0, 0, -1, 0.000188, -0.00007)"/>
  <g style="" transform="matrix(-1, 0, 0, 1, 2579.778809, 0)">
    <path d="M903.8 42a465 465 0 01-30-27.8l-4-4.3L895.3-.9l-5.1 17.2L910 5.8l-17.1 25 47.3-28.4z" transform="translate(52 205)" fill="#358554"/>
    <path d="M1043.7 175l47.8-7.3c-5.5 10.6-11.2 22-8.2 34.2s18.4 25 33 23l-10 18.7 40-18.3a468.6 468.6 0 01-91.6 101.8c-30.3-54.5-12.3-118-41.8-174.4a203.1 203.1 0 00-38-49 223 223 0 0022.4-20.9c6.2 13 25.5 22.7 41.6 20.7l-.6 43.4 8 .7-3.8 10.1 15.7-6.7z" transform="translate(52 205)" fill="#358554"/>
    <path d="M986.4-10.7a446.6 446.6 0 01-68 65q-6.8-5.6-13.5-11.4a283.4 283.4 0 0081.5-53.6z" transform="translate(52 205)" fill="#358554"/>
    <path d="M1153 405.6a270 270 0 0069.4-50.5l-27.9 39 73.4-60.8a872 872 0 01-89.6 84.2c-8.5-4-17-7.9-25.2-11.9z" transform="translate(52 205)" fill="#358554"/>
    <path d="M867.5 2.9l-1 3.5-1.7-1.8 2.7-1.7z" transform="translate(52 205)" fill="#358554"/>
    <path d="M1231.4 264.9c-29.7 45.2-59.6 90-89.4 135.2-29.4-14.9-56.3-31.6-75-54.7-1.6-2-3.2-4-4.6-6l76.3-35.4-23.8 31 51.4-33.3-35 45a269.8 269.8 0 00100.1-81.8z" transform="translate(52 205)" fill="#358554"/>
  </g>
  <path d="M 1449.879 466.2 C 1429.146 435.91 1403.728 409.109 1374.579 386.8 C 1382.579 395.3 1390.979 405.2 1399.079 413.7 L 1382.879 400.2 L 1395.879 414.9 L 1381.079 403.9 L 1396.879 421.4 L 1385.879 417.8 C 1398.173 432.443 1411.543 446.148 1425.879 458.8 L 1396.179 439.2 L 1409.079 454.5 L 1399.879 447.6 L 1409.179 461.1 L 1397.279 452.1 L 1419.279 478.9 L 1408.879 471.2 L 1440.879 501.4 L 1418.379 469.8 L 1435.879 482.1 L 1419.979 463.1 L 1436.679 475.7 L 1419.679 457.7 L 1444.279 474.7 L 1411.879 428.7 C 1423.879 441.1 1437.879 453.8 1449.879 466.2 L 1449.879 466.2 Z" fill="#a38d41" style="transform-box: fill-box; transform-origin: 50% 50%;" transform="matrix(-1, 0, 0, -1, 0.000173, 0.000053)"/>
  <g style="" transform="matrix(-1, 0, 0, 1, 2579.778809, 0)">
    <path d="M958.5 88.3c-7.4-6.5-15-13-22.8-19.5A315.3 315.3 0 00988.5 14l-24.7 41.9L981.3 35l-20.5 38.3c12.6-9.7 27-21.6 39.7-31.3a214.2 214.2 0 01-42 46.3z" transform="translate(52 205)" fill="#358554"/>
    <path d="M942.4 53.7L934.7 68l-3.7-3z" transform="translate(52 205)" fill="#358554"/>
  </g>
  <path d="M 1652.479 91.7 C 1663.583 81.916 1673.945 71.32 1683.479 60 L 1660.679 79.5 L 1665.479 72.5 L 1657.979 79 L 1661.979 72.3 L 1652.379 82.5 C 1649.879 75.5 1644.179 69.5 1636.479 65.8 L 1646.879 82.9 L 1637.379 73.9 L 1642.479 84.4 L 1637.879 80.4 L 1644.679 93.8 L 1629.379 79.8 L 1639.079 96 L 1635.879 93.8 L 1637.379 98.2 L 1627.779 109.7 L 1652.579 91.7 L 1652.479 91.7 Z" fill="#a38d41" style="transform-box: fill-box; transform-origin: 50% 50%;" transform="matrix(-1, 0, 0, -1, 0.000008, -0.000018)"/>
  <path d="M 1584.679 169.5 L 1625.279 195.9 L 1609.779 180.6 L 1623.179 188.3 L 1610.579 176.9 C 1623.779 184.1 1635.879 189.9 1649.079 197.1 C 1641.679 190.7 1633.979 183.6 1626.579 177.2 C 1634.579 181.6 1641.579 186.2 1649.579 190.6 C 1638.874 180.39 1626.537 172.041 1613.079 165.9 C 1615.079 169.4 1616.379 172.9 1618.379 176.5 C 1611.379 173.1 1604.379 169.3 1597.379 165.9 L 1604.879 176.1 C 1597.027 171.755 1588.792 168.14 1580.279 165.3 C 1581.879 166.5 1583.179 168.4 1584.779 169.5 L 1584.679 169.5 Z" fill="#a38d41" style="transform-box: fill-box; transform-origin: 50% 50%;" transform="matrix(-1, 0, 0, -1, 0.000161, 0.000049)"/>
  <path d="M 1359.079 436.1 C 1386.782 454.209 1411.538 476.469 1432.479 502.1 C 1414.579 472.6 1395.979 450.7 1359.079 436.1 Z" fill="#a38d41" style="transform-box: fill-box; transform-origin: 50% 50%;" transform="matrix(-1, 0, 0, -1, -0.000126, -0.000008)"/>
  <path d="M 1067.179 790.2 L 1119.979 827.7 C 1092.779 819.3 1083.679 808.7 1067.179 790.2 Z" fill="#1d4d3d" style="transform-box: fill-box; transform-origin: 50% 50%;" transform="matrix(-1, 0, 0, -1, 0.000128, 0.000021)"/>
  <path d="M 1231.479 562.3 C 1251.479 579.3 1266.779 599.8 1276.679 622.3 C 1259.567 603.926 1244.418 583.817 1231.479 562.3 Z" fill="#358554" style="transform-box: fill-box; transform-origin: 50% 50%;" transform="matrix(-1, 0, 0, -1, 0.000037, -0.000043)"/>
  <path d="M 1153.779 662.3 C 1168.254 677.38 1180.086 694.79 1188.779 713.8 C 1168.679 700.8 1159.879 683.1 1153.779 662.3 Z" fill="#1d4d3d" style="transform-box: fill-box; transform-origin: 50% 50%;" transform="matrix(-1, 0, 0, -1, 0.000086, -0.000007)"/>
  <g style="" transform="matrix(-1, 0, 0, 1, 2579.778809, 0)">
    <path d="M1123.8 368.4l-11.3 9 20-8.9-12.3 14.3 34.2-18.7L1123 390c-7.5-4.2-14.7-8.7-21.5-13.5z" transform="translate(52 205)" fill="#6ba682"/>
    <path d="M1077.2 240.2l-38.6 40q-1.1-5.6-2-11.3z" transform="translate(52 205)" fill="#6ba682"/>
    <path d="M1029.6 199.7l-1.1 1.4-.2-1.1z" transform="translate(52 205)" fill="#6ba682"/>
    <path d="M1117 349.9l-29.2 16.3-3.5-3a225 225 0 0032.6-13.3z" transform="translate(52 205)" fill="#6ba682"/>
    <path d="M1031.8 224.6l-1.6-12.4 28.6-17z" transform="translate(52 205)" fill="#6ba682"/>
    <path d="M1016.1 159.5c-1-2.2-2-4.5-3.2-6.8l-2.8-4.8 18.5-15.6z" transform="translate(52 205)" fill="#6ba682"/>
    <path d="M1034.4 250l-.3-3.3 3.1-1.1z" transform="translate(52 205)" fill="#6ba682"/>
    <path d="M1036 263.9l-1-8.4 16-10.3z" transform="translate(52 205)" fill="#6ba682"/>
  </g>
</svg>