<?xml version="1.0" encoding="utf-8"?>
<svg viewBox="835.588 21.9 908.49 1210.324" xmlns="http://www.w3.org/2000/svg">
  <path d="M1704.67,1212.2c.35,1.23.66,2.36.95,3.39,0,.12.07.24.1.36.27,1,.51,1.84.73,2.61l0,.16c.22.76.4,1.43.56,2l.09.33c.13.47.24.86.32,1.16l0,.2c.07.24.11.4.13.48l0,.06,29.63,3.61,0-.1a3.67,3.67,0,0,0-.12-.37c-1.59-4.71-14.9-44-32.28-93.74h0c-16.5-47.18-36.65-103.69-53.89-148.72l0-.05,0,0q-6-15.15-12.35-30.24l-.38-.9q-2.82-6.74-5.73-13.44l-1-2.47q-2.82-6.49-5.69-13c-.41-1-.83-1.89-1.25-2.83q-2.88-6.48-5.82-12.93l-1.23-2.7q-3-6.61-6.1-13.2l-1-2.2q-3.22-6.88-6.52-13.74l-.63-1.31C1448.82,553.83,1182.92,254.54,845.13,24c-8.86,45.89,6.33,94.6,35.74,139.6a207.92,207.92,0,0,0,33.59-30.46l-28.21,38.44q4.2,6,8.71,11.93,21.19-10.14,41.6-21.76c1,4,2,8,2.79,12.1l-28.64,28.86q3,3.47,6.14,6.86h0c.56.61,1.11,1.23,1.68,1.84v0c1.08,1.17,2.17,2.32,3.27,3.47h0c1.36,1.43,2.7,2.88,4.09,4.3,7.38,7.56,15.3,14.92,23.48,22.12,4.93,29.58,13.31,58.33,36,83.34,23.7,26.08,59.64,43.89,91.46,64.23l.21.8c0,.17.09.33.13.5.18.68.34,1.35.51,2,.07.3.15.6.22.9.15.61.29,1.22.43,1.82.08.38.17.77.26,1.15l.36,1.64c.09.46.19.91.29,1.37l.3,1.46c.11.55.21,1.1.32,1.65.08.39.16.79.23,1.19s.19,1,.29,1.56h-.06c.07.38.15.75.22,1.12l0,0,0,.2c.65,3.64,1.21,7.29,1.71,10.95l0,0c.54,4.12,1.08,8.25,1.54,12.38l0-.05c.82,7.37,1.52,14.76,2.27,22.12h0c.11,1.1.22,2.2.34,3.3l0-.06.6,5.55,0,0q.45,4.2,1,8.37l0-.05q.33,2.5.69,5l0,0q.81,5.71,1.88,11.39l0,0c3.84,20.5,10.39,40.44,23.82,59.14h0c1.44,2,3,4,4.57,6a145.58,145.58,0,0,0,17.32,17.82h0l.07.06a203.52,203.52,0,0,0,22.46,16.88,103.55,103.55,0,0,0,22.63,41.44c30.32,33.93,84.07,49.91,119.19,81,42.28,37.43,50.14,89.38,83.54,131.57,14.25,18,32.86,33.73,53.82,47.27,15.22,22.51,35.31,42.44,62.46,55.78q1.76.89,3.54,1.71c2.3,1.06,4.62,2,7,2.92,37.89,14.41,81.36,8.57,115.59,22,36.34,97.79,68.32,208.81,78,243.36Z" transform="translate(0.03 0)" fill="none" stroke="#1d1d1b" stroke-width="3"/>
  <path d="M1598.9 778.7c36.6 95.6 86.3 243 86.3 243l-29.6-3.7s-67.3-246-126.8-361.8z" transform="translate(52 205)" fill="#358554"/>
  <path d="M1590.2 771.9c21.3 56.2 37.6 136.3 62.6 155.5 18.5 53 32.4 94.2 32.4 94.2l-29.6-3.6s-38.7-141.5-83.3-260.3z" transform="translate(52 205)" fill="#358554"/>
  <path d="M1573.9 751.2c-45-11.4-90.4-23-133-41s-82.8-43.4-108.7-76c-33.4-42.3-41.3-94.2-83.6-131.6-35-31.1-88.8-47.1-119.1-81-51.8-58-9-135-55-195.5-33.4-44-103.1-64.5-141.2-106.4C872.1 52.3 915-42.1 849.2-107c35.4 32.9 69.6 17.4 104 51.1 241 235.8 486 493.7 620.7 807.1z" transform="translate(52 205)" fill="#04392c"/>
  <path d="M922.4-66.5a660.4 660.4 0 01-79.5 45q-4.5-5.9-8.7-11.9l28.2-38.4a208.3 208.3 0 01-33.6 30.4c-29.4-45-44.6-93.7-35.7-139.6 375.7 256.5 662.6 598 805.8 959.7-37.6-34.3-97.9-17.3-146.9-39.8-54.7-25.1-81.6-76.6-97.6-123.5s-28-97.2-69.5-135.8c-19.5-18-43.8-32-69.4-44.6l80.5-95a429.1 429.1 0 01-104 83.8c-47.3-22-96-42.6-125-78.5-47.3-58.3-21.3-129.7-54.1-192.6C984.9 99 919.7 61 873.9 14q-8-8-15.2-16.4z" transform="translate(52 205)" fill="#1d674b"/>
  <g>
    <path d="M1116.5 81.4q29.9 28.7 58.5 58.2l-23.4 25.7-2.6-42.9-18.1 24v-24.2l-14 17z" transform="translate(52 205)" fill="#1d4d3d"/>
    <path d="M1100.2 66l-35.5 29.3-9.3-68.4-14.7 12-7.4-12.6-10.6 1c4.7-17.9-27.3-38-27-54.6q54 45.4 104.5 93.3z" transform="translate(52 205)" fill="#1d4d3d"/>
    <path d="M1320.6 305.4A2021.9 2021.9 0 011477.8 533l-78.7 73.3 31.4-50.2-17.3 21.2 5.6-18-46.4 33 38.8-77.5-40 23.9 16-28.5-29 14.2 44-100.9-64.7 45.4 21.6-44-31.4 21.9 12-20.8-19.6 16.6 7.6-21.7-46.1 27.8 55.9-115.9-61.5 66.9a183 183 0 0044.6-94.4z" transform="translate(52 205)" fill="#1d4d3d"/>
    <path d="M1288 265.4l-36.7 47.8q4-17.6 8.2-35.1l-12 9.3c11.3-15.5 2.8-39.8-18.2-52-3-13.2-22.2-24.2-37.7-21.8l-1.9-58.5q51.4 54 98.4 110.3z" transform="translate(52 205)" fill="#1d4d3d"/>
  </g>
  <g>
    <path d="M1452 738.9a149.5 149.5 0 01-13.7-7.3 45.8 45.8 0 0018 4.1c6.3-7.8 1.2-19.1-2-29.1s-1.8-22.8 10.2-24.7l-9.9-1.6 31.3-17-70.1 16.9c31.8-17 59.7-33.5 91.5-50.5-18.7-42-41-105.7-65.1-152L1481 547a1814.7 1814.7 0 0191.7 169.5q13.8 31 26.2 62.3c-37.6-34.3-97.9-17.3-146.9-39.8z" transform="translate(52 205)" fill="#1d4d3d"/>
    <path d="M1416.4 452.2l-257-312.9a1493.6 1493.6 0 01257 313z" transform="translate(52 205)" fill="#04392c"/>
  </g>
  <path d="M1598.9 778.7c-2.3-2-2.9 2-5.3.3l-.8-1c-90.5-212.2-230.1-423-406.2-607.3-73.5-76.8-153.4-150-233.2-223l-69.5-63.6C1215 132 1467.5 447 1599 778.8z" transform="translate(52 205)" fill="#358554"/>
  <g>
    <path d="M903.8 42a465 465 0 01-30-27.8l-4-4.3L895.3-.9l-5.1 17.2L910 5.8l-17.1 25 47.3-28.4z" transform="translate(52 205)" fill="#358554"/>
    <path d="M1043.7 175l47.8-7.3c-5.5 10.6-11.2 22-8.2 34.2s18.4 25 33 23l-10 18.7 40-18.3a468.6 468.6 0 01-91.6 101.8c-30.3-54.5-12.3-118-41.8-174.4a203.1 203.1 0 00-38-49 223 223 0 0022.4-20.9c6.2 13 25.5 22.7 41.6 20.7l-.6 43.4 8 .7-3.8 10.1 15.7-6.7z" transform="translate(52 205)" fill="#358554"/>
    <path d="M986.4-10.7a446.6 446.6 0 01-68 65q-6.8-5.6-13.5-11.4a283.4 283.4 0 0081.5-53.6z" transform="translate(52 205)" fill="#358554"/>
    <path d="M1153 405.6a270 270 0 0069.4-50.5l-27.9 39 73.4-60.8a872 872 0 01-89.6 84.2c-8.5-4-17-7.9-25.2-11.9z" transform="translate(52 205)" fill="#358554"/>
    <path d="M867.5 2.9l-1 3.5-1.7-1.8 2.7-1.7z" transform="translate(52 205)" fill="#358554"/>
    <path d="M1231.4 264.9c-29.7 45.2-59.6 90-89.4 135.2-29.4-14.9-56.3-31.6-75-54.7-1.6-2-3.2-4-4.6-6l76.3-35.4-23.8 31 51.4-33.3-35 45a269.8 269.8 0 00100.1-81.8z" transform="translate(52 205)" fill="#358554"/>
  </g>
  <path d="M1153.2 217a346.3 346.3 0 01-75.3 79.4c8-8.5 16.4-18.4 24.5-26.9l-16.2 13.5 13-14.7-14.8 11 15.8-17.5-11 3.6a384 384 0 0140-41l-29.7 19.6 12.9-15.3-9.2 6.9 9.3-13.5-11.9 9 22-26.8-10.4 7.7 32-30.2-22.5 31.6 17.5-12.3-15.9 19 16.7-12.6-17 18 24.6-17-32.4 46c12-12.4 26-25.1 38-37.5z" transform="translate(52 205)" fill="#a38d41"/>
  <g>
    <path d="M958.5 88.3c-7.4-6.5-15-13-22.8-19.5A315.3 315.3 0 00988.5 14l-24.7 41.9L981.3 35l-20.5 38.3c12.6-9.7 27-21.6 39.7-31.3a214.2 214.2 0 01-42 46.3z" transform="translate(52 205)" fill="#358554"/>
    <path d="M942.4 53.7L934.7 68l-3.7-3z" transform="translate(52 205)" fill="#358554"/>
  </g>
  <path d="M869-127a298.6 298.6 0 0131 31.7l-22.8-19.5 4.8 7-7.5-6.5 4 6.7-9.6-10.2c-2.5 7-8.2 13-15.9 16.7l10.4-17.1-9.5 9 5.1-10.5-4.6 4 6.8-13.4-15.3 14 9.7-16.2-3.2 2.2 1.5-4.4-9.6-11.5 24.8 18z" transform="translate(52 205)" fill="#a38d41"/>
  <path d="M882.6-12.1l40.6-26.4-15.5 15.3 13.4-7.7-12.6 11.4c13.2-7.2 25.3-13 38.5-20.2-7.4 6.4-15.1 13.5-22.5 19.9 8-4.4 15-9 23-13.4A132.7 132.7 0 01911-8.5c2-3.5 3.3-7 5.3-10.6-7 3.4-14 7.2-21 10.6l7.5-10.2a146.6 146.6 0 01-24.6 10.8c1.6-1.2 2.9-3.1 4.5-4.2z" transform="translate(52 205)" fill="#a38d41"/>
  <path d="M1095.3 297.1a323 323 0 0073.4-66c-17.9 29.5-36.5 51.4-73.4 66z" transform="translate(52 205)" fill="#a38d41"/>
  <path d="M1407.8 622.7l52.8-37.5c-27.2 8.4-36.3 19-52.8 37.5z" transform="translate(52 205)" fill="#1d4d3d"/>
  <path d="M1251.1 417.3c20-17 35.3-37.5 45.2-60a361 361 0 00-45.2 60z" transform="translate(52 205)" fill="#358554"/>
  <path d="M1339 508.8a186.2 186.2 0 0035-51.5c-20.1 13-28.9 30.7-35 51.5z" transform="translate(52 205)" fill="#1d4d3d"/>
  <g>
    <path d="M1123.8 368.4l-11.3 9 20-8.9-12.3 14.3 34.2-18.7L1123 390c-7.5-4.2-14.7-8.7-21.5-13.5z" transform="translate(52 205)" fill="#6ba682"/>
    <path d="M1077.2 240.2l-38.6 40q-1.1-5.6-2-11.3z" transform="translate(52 205)" fill="#6ba682"/>
    <path d="M1029.6 199.7l-1.1 1.4-.2-1.1z" transform="translate(52 205)" fill="#6ba682"/>
    <path d="M1117 349.9l-29.2 16.3-3.5-3a225 225 0 0032.6-13.3z" transform="translate(52 205)" fill="#6ba682"/>
    <path d="M1031.8 224.6l-1.6-12.4 28.6-17z" transform="translate(52 205)" fill="#6ba682"/>
    <path d="M1016.1 159.5c-1-2.2-2-4.5-3.2-6.8l-2.8-4.8 18.5-15.6z" transform="translate(52 205)" fill="#6ba682"/>
    <path d="M1034.4 250l-.3-3.3 3.1-1.1z" transform="translate(52 205)" fill="#6ba682"/>
    <path d="M1036 263.9l-1-8.4 16-10.3z" transform="translate(52 205)" fill="#6ba682"/>
  </g>
</svg>